<svg width="209" height="91" viewBox="0 0 209 91" fill="none" xmlns="http://www.w3.org/2000/svg">
<path d="M149.716 90.5997H127.698L74.858 16.4353L22.0176 90.5997H0L63.8492 0.986217L64.5523 0H85.1637L85.8668 0.986217L149.716 90.5997Z" fill="#000614"/>
<path d="M95.5322 90.6017H89.4498H74.8594H60.2691H54.1914L71.8206 65.8567L74.8594 61.5391L77.8983 65.8567L95.5322 90.6017Z" fill="url(#paint0_linear_19_1707)"/>
<path d="M208.66 45.2998C208.66 55.582 205.234 65.0666 199.458 72.6685C198.208 74.3153 196.849 75.8725 195.391 77.3306C187.194 85.5317 175.869 90.5997 163.36 90.5997H157.83L145.051 72.6685H162.341C177.351 72.6685 189.686 60.6168 189.785 45.6065V44.9931C189.686 29.9828 177.351 17.9312 162.341 17.9312H106.051L93.2773 0H163.36C178.097 0 191.186 7.03563 199.458 17.9312C205.234 25.5331 208.66 35.0177 208.66 45.2998Z" fill="url(#paint1_linear_19_1707)"/>
<defs>
<linearGradient id="paint0_linear_19_1707" x1="74.8618" y1="61.5391" x2="90.6952" y2="90.6017" gradientUnits="userSpaceOnUse">
<stop stop-color="#E6B30C"/>
<stop offset="1" stop-color="#FEEE74"/>
</linearGradient>
<linearGradient id="paint1_linear_19_1707" x1="150.969" y1="2.09247e-06" x2="203.143" y2="85.7413" gradientUnits="userSpaceOnUse">
<stop stop-color="#E6B30C"/>
<stop offset="1" stop-color="#FEEE74"/>
</linearGradient>
</defs>
</svg>
