<svg width="779" height="91" viewBox="0 0 779 91" fill="none" xmlns="http://www.w3.org/2000/svg">
<path d="M149.716 90.5997H127.698L74.858 16.4353L22.0176 90.5997H0L63.8492 0.986217L64.5523 0H85.1637L85.8668 0.986217L149.716 90.5997Z" fill="#E6ECF3"/>
<path d="M95.5322 90.6017H89.4498H74.8594H60.2691H54.1914L71.8206 65.8567L74.8594 61.5391L77.8983 65.8567L95.5322 90.6017Z" fill="url(#paint0_linear_18_705)"/>
<path d="M208.66 45.2998C208.66 55.582 205.234 65.0666 199.458 72.6685C198.208 74.3153 196.849 75.8725 195.391 77.3306C187.194 85.5317 175.869 90.5997 163.36 90.5997H157.83L145.051 72.6685H162.341C177.351 72.6685 189.686 60.6168 189.785 45.6065V44.9931C189.686 29.9828 177.351 17.9312 162.341 17.9312H106.051L93.2773 0H163.36C178.097 0 191.186 7.03563 199.458 17.9312C205.234 25.5331 208.66 35.0177 208.66 45.2998Z" fill="url(#paint1_linear_18_705)"/>
<path d="M242.115 11.293H241.691V79.3092H242.115V11.293Z" fill="#EBB811"/>
<path d="M310.205 49.2249H303.9L292.675 27.0657L281.449 49.2249H275.145L289.523 20.8464L289.966 19.9688H295.383L295.827 20.8464L310.205 49.2249Z" fill="#E6ECF3"/>
<path d="M357.344 28.4625C357.344 29.8215 357.027 31.1002 356.461 32.2375C356.051 33.068 355.503 33.823 354.857 34.4694C353.319 36.003 351.195 36.9562 348.85 36.9562H333.75V49.2249H329.031V32.2375H348.779C350.86 32.2375 352.615 30.5859 352.625 28.5049V28.42C352.615 26.339 350.86 24.6875 348.779 24.6875H329.031V19.9688H348.85C352.181 19.9688 355.069 21.8893 356.461 24.6875C357.027 25.8247 357.344 27.1035 357.344 28.4625Z" fill="#E6ECF3"/>
<path d="M402.589 44.5031V49.2218H376.164V32.2344H400.701V36.9531H380.883V44.5031H402.589Z" fill="#E6ECF3"/>
<path d="M376.164 19.9727V24.6914H402.589V19.9727H376.164Z" fill="#E6ECF3"/>
<path d="M436.93 30.1487L436.831 30.2572L433.754 33.6736L421.41 19.9609H427.757L436.93 30.1487Z" fill="#E6ECF3"/>
<path d="M454.101 49.2233H447.754L438.836 39.314L438.935 39.2054L442.007 35.7891L454.101 49.2233Z" fill="#E6ECF3"/>
<path d="M454.355 19.9609L441.058 34.7306L437.887 38.2555L428.011 49.2218H421.664L434.711 34.7306L437.887 31.2057L448.009 19.9609H454.355Z" fill="url(#paint2_linear_18_705)"/>
<path d="M510.805 27.5187V41.6749C510.805 45.8463 507.426 49.2249 503.255 49.2249H482.492V32.0912H487.211V44.5062H500.423C503.552 44.5062 506.086 41.9722 506.086 38.8437V30.35C506.086 27.2214 503.552 24.6875 500.423 24.6875H482.492V19.9688H503.255C507.426 19.9688 510.805 23.3474 510.805 27.5187Z" fill="#E6ECF3"/>
<path d="M545.668 36.9562L557.941 49.2249H551.269L539 36.9562H534.348V49.2249H529.629V32.2375H549.377C551.458 32.2375 553.213 30.5859 553.223 28.5049V28.42C553.213 26.339 551.458 24.6875 549.377 24.6875H529.629V19.9688H549.448C552.779 19.9688 555.667 21.8893 557.059 24.6875C557.625 25.8247 557.941 27.1035 557.941 28.4625C557.941 29.8215 557.625 31.1002 557.059 32.2375C556.648 33.068 556.101 33.823 555.455 34.4694C553.916 36.003 551.793 36.9562 549.448 36.9562H545.668Z" fill="#E6ECF3"/>
<path d="M581.48 19.9688H576.762V49.2249H581.48V19.9688Z" fill="#E6ECF3"/>
<path d="M600.305 19.9688H606.609L617.835 42.1279L629.061 19.9688H635.365L620.987 48.3472L620.543 49.2249H615.126L614.683 48.3472L600.305 19.9688Z" fill="#E6ECF3"/>
<path d="M680.491 44.5031V49.2218H654.066V32.2344H678.604V36.9531H658.785V44.5031H680.491Z" fill="#E6ECF3"/>
<path d="M654.066 19.9688V24.6875H680.491V19.9688H654.066Z" fill="#E6ECF3"/>
<path d="M715.356 19.9609C706.494 19.9609 699.312 26.5105 699.312 34.589C699.312 42.6675 706.494 49.2218 715.356 49.2218C724.218 49.2218 731.4 42.6722 731.4 34.589C731.4 26.5058 724.218 19.9609 715.356 19.9609ZM715.356 45.0363C709.033 45.0363 703.904 40.36 703.904 34.589C703.904 28.818 709.033 24.1465 715.356 24.1465C721.679 24.1465 726.809 28.8227 726.809 34.589C726.809 40.3553 721.679 45.0363 715.356 45.0363Z" fill="url(#paint3_linear_18_705)"/>
<path d="M769.971 44.5062H750.223V49.2249H770.041C772.387 49.2249 774.51 48.2717 776.048 46.7381C776.695 46.0917 777.242 45.3367 777.653 44.5062C778.219 43.3689 778.535 42.0902 778.535 40.7312C778.535 39.3722 778.219 38.0934 777.653 36.9562C776.261 34.158 773.373 32.2375 770.041 32.2375H758.787C756.706 32.2375 754.951 30.5859 754.941 28.5049V28.42C754.951 26.339 756.706 24.6875 758.787 24.6875H778.535V19.9688H758.716C755.385 19.9688 752.497 21.8893 751.105 24.6875C750.539 25.8247 750.223 27.1035 750.223 28.4625C750.223 29.8215 750.539 31.1002 751.105 32.2375C751.516 33.068 752.063 33.823 752.709 34.4694C754.248 36.003 756.371 36.9562 758.716 36.9562H769.971C772.052 36.9562 773.807 38.6077 773.816 40.6887V40.7736C773.807 42.8546 772.052 44.5062 769.971 44.5062Z" fill="url(#paint4_linear_18_705)"/>
<path d="M302.874 70.55V65.2368H300.93V64.4062H305.648V65.2368H303.794V70.55H302.879H302.874Z" fill="#E6ECF3"/>
<path d="M310.414 70.5531V64.4141H311.325V66.9858H314.467V64.4141H315.378V70.5531H314.467V67.7738H311.325V70.5531H310.414Z" fill="#E6ECF3"/>
<path d="M320.734 70.5531V64.4141H324.703V65.2021H321.65V67.066H324.373V67.8446H321.645V69.7509H324.774V70.5531H320.734Z" fill="#E6ECF3"/>
<path d="M338.053 70.6379C337.496 70.6379 337.015 70.5152 336.609 70.2651C336.203 70.0197 335.892 69.6611 335.67 69.1892C335.453 68.7221 335.34 68.1558 335.34 67.4905C335.34 66.8251 335.453 66.2542 335.675 65.7823C335.897 65.3104 336.213 64.9518 336.619 64.7017C337.024 64.4516 337.506 64.3242 338.058 64.3242C338.61 64.3242 339.082 64.4516 339.488 64.7017C339.893 64.9518 340.2 65.3152 340.422 65.7823C340.639 66.2542 340.752 66.8251 340.752 67.4905C340.752 68.1558 340.644 68.7174 340.427 69.1845C340.21 69.6517 339.898 70.0103 339.492 70.2604C339.091 70.5105 338.61 70.6332 338.058 70.6332L338.053 70.6379ZM338.053 69.8593C338.412 69.8593 338.714 69.7791 338.969 69.6139C339.223 69.4488 339.417 69.194 339.549 68.8448C339.681 68.4956 339.747 68.052 339.747 67.5094C339.747 66.9667 339.681 66.4948 339.544 66.1409C339.407 65.787 339.214 65.5275 338.964 65.3576C338.709 65.1877 338.407 65.1028 338.053 65.1028C337.699 65.1028 337.392 65.1877 337.138 65.3576C336.883 65.5275 336.685 65.7918 336.543 66.1457C336.402 66.4996 336.336 66.9526 336.336 67.5094C336.336 68.0662 336.406 68.5003 336.543 68.8495C336.68 69.1939 336.878 69.4535 337.138 69.6139C337.392 69.7791 337.699 69.8593 338.053 69.8593Z" fill="#E6ECF3"/>
<path d="M345.773 70.5531V64.4141H347.902C348.34 64.4141 348.732 64.4896 349.081 64.6406C349.426 64.7916 349.699 65.0133 349.902 65.3012C350.101 65.5937 350.2 65.9524 350.2 66.3771C350.2 66.8017 350.11 67.1321 349.926 67.4199C349.742 67.7077 349.487 67.9248 349.161 68.0805C348.836 68.2362 348.454 68.307 348.024 68.307H346.698V70.5578H345.773V70.5531ZM346.694 67.5615H347.996C348.388 67.5615 348.704 67.4482 348.954 67.2217C349.199 66.9952 349.322 66.6979 349.322 66.3251C349.322 65.9524 349.195 65.6551 348.94 65.4522C348.685 65.2493 348.359 65.1502 347.963 65.1502H346.694V67.5615Z" fill="#E6ECF3"/>
<path d="M355.02 70.5531V64.4141H358.988V65.2021H355.935V67.066H358.658V67.8446H355.93V69.7509H359.059V70.5531H355.02Z" fill="#E6ECF3"/>
<path d="M364.173 70.5531V64.4141H366.612C367.07 64.4141 367.447 64.4848 367.745 64.6264C368.047 64.768 368.269 64.9662 368.415 65.221C368.561 65.4805 368.637 65.7825 368.637 66.1364C368.637 66.4667 368.58 66.7451 368.467 66.9669C368.353 67.1887 368.212 67.368 368.033 67.5048C367.853 67.6417 367.669 67.7549 367.476 67.8304L368.665 70.5578H367.707L366.622 67.9909H365.079V70.5578H364.168L364.173 70.5531ZM365.083 67.25H366.367C366.796 67.25 367.127 67.1557 367.363 66.9716C367.598 66.7876 367.716 66.5186 367.716 66.1742C367.716 65.8297 367.608 65.5749 367.396 65.4003C367.183 65.2257 366.891 65.136 366.527 65.136H365.088V67.2453L365.083 67.25Z" fill="#E6ECF3"/>
<path d="M373.348 70.5531L375.565 64.4141H376.566L378.779 70.5531H377.863L377.288 68.944H374.853L374.273 70.5531H373.352H373.348ZM375.075 68.1183H377.047L376.061 65.2965L375.075 68.1183Z" fill="#E6ECF3"/>
<path d="M384.288 70.55V65.2368H382.344V64.4062H387.062V65.2368H385.208V70.55H384.293H384.288Z" fill="#E6ECF3"/>
<path d="M391.832 70.5531V64.4141H392.743V70.5531H391.832Z" fill="#E6ECF3"/>
<path d="M398.098 70.5531V64.4141H398.976L402.1 68.9912V64.4141H403.015V70.5531H402.199L399.004 65.8769V70.5531H398.094H398.098Z" fill="#E6ECF3"/>
<path d="M410.691 70.6371C410.144 70.6371 409.672 70.5144 409.275 70.2643C408.879 70.0142 408.572 69.6556 408.36 69.1884C408.148 68.7213 408.039 68.155 408.039 67.4991C408.039 66.8432 408.148 66.2675 408.369 65.7956C408.586 65.3238 408.903 64.9604 409.304 64.7056C409.709 64.4555 410.186 64.3281 410.729 64.3281C411.054 64.3281 411.356 64.3848 411.635 64.4933C411.913 64.6018 412.159 64.7528 412.376 64.9416C412.588 65.1303 412.758 65.3474 412.885 65.588C413.008 65.8287 413.079 66.0788 413.098 66.343H412.13C412.092 66.126 412.008 65.9231 411.875 65.739C411.748 65.555 411.583 65.404 411.385 65.2908C411.186 65.1775 410.965 65.1209 410.715 65.1209C410.384 65.1209 410.092 65.2011 409.837 65.3662C409.582 65.5314 409.384 65.7862 409.242 66.1307C409.101 66.4752 409.03 66.9234 409.03 67.4755C409.03 67.9049 409.072 68.2683 409.162 68.5655C409.252 68.8675 409.374 69.1082 409.53 69.2922C409.686 69.4763 409.87 69.6084 410.078 69.6933C410.285 69.7783 410.512 69.8207 410.748 69.8207C410.984 69.8207 411.191 69.7783 411.366 69.698C411.545 69.6178 411.691 69.5093 411.814 69.3819C411.937 69.2545 412.026 69.1129 412.092 68.9572C412.159 68.8015 412.196 68.6599 412.21 68.5184L412.239 68.0229H410.804V67.367L413.187 67.3764V70.5521H412.531V69.6509C412.423 69.816 412.291 69.9765 412.125 70.1275C411.96 70.2785 411.767 70.4011 411.531 70.4955C411.295 70.5899 411.017 70.6371 410.691 70.6371Z" fill="#E6ECF3"/>
<path d="M426.429 70.6363C426.127 70.6363 425.839 70.5985 425.565 70.5277C425.291 70.4522 425.037 70.3437 424.815 70.1974C424.588 70.0511 424.404 69.8718 424.258 69.65C424.112 69.433 424.022 69.1782 423.984 68.8856H424.933C424.98 69.1074 425.074 69.2914 425.221 69.4424C425.362 69.5934 425.542 69.7067 425.759 69.7822C425.976 69.8577 426.216 69.8954 426.481 69.8954C426.726 69.8954 426.948 69.8577 427.155 69.7822C427.363 69.7067 427.528 69.5934 427.656 69.4518C427.783 69.3056 427.849 69.131 427.849 68.9233C427.849 68.6874 427.769 68.5034 427.613 68.3665C427.457 68.2297 427.221 68.1212 426.905 68.0362L425.674 67.7295C425.376 67.6587 425.117 67.5596 424.89 67.4275C424.664 67.2954 424.489 67.1208 424.362 66.9037C424.239 66.6867 424.173 66.4177 424.173 66.0968C424.173 65.7382 424.272 65.4315 424.47 65.1625C424.669 64.8936 424.933 64.6954 425.273 64.5491C425.612 64.4028 425.995 64.332 426.419 64.332C426.91 64.332 427.321 64.417 427.656 64.5821C427.991 64.7473 428.245 64.9691 428.42 65.2427C428.595 65.5164 428.684 65.8137 428.684 66.1346H427.759C427.736 65.875 427.656 65.6674 427.528 65.5117C427.401 65.356 427.236 65.2475 427.042 65.1767C426.844 65.1106 426.627 65.0729 426.391 65.0729C425.971 65.0729 425.655 65.1672 425.447 65.3513C425.235 65.5353 425.131 65.7571 425.131 66.0119C425.131 66.2478 425.207 66.4319 425.362 66.5687C425.518 66.7055 425.744 66.8094 426.046 66.8849L427.236 67.1774C427.608 67.2576 427.91 67.3803 428.132 67.5455C428.359 67.7106 428.519 67.8994 428.618 68.1212C428.717 68.343 428.769 68.5789 428.769 68.8431C428.769 69.1923 428.67 69.499 428.477 69.7727C428.283 70.0417 428.009 70.254 427.66 70.4097C427.311 70.5655 426.901 70.641 426.433 70.641L426.429 70.6363Z" fill="#E6ECF3"/>
<path d="M435.007 70.55V67.9406L432.902 64.4062H433.898L435.469 67.1384L437.022 64.4062H438.017L435.922 67.9453V70.55H435.012H435.007Z" fill="#E6ECF3"/>
<path d="M444.472 70.6363C444.17 70.6363 443.882 70.5985 443.608 70.5277C443.334 70.4522 443.08 70.3437 442.858 70.1974C442.631 70.0511 442.447 69.8718 442.301 69.65C442.155 69.433 442.065 69.1782 442.027 68.8856H442.976C443.023 69.1074 443.117 69.2914 443.264 69.4424C443.405 69.5934 443.585 69.7067 443.802 69.7822C444.019 69.8577 444.259 69.8954 444.524 69.8954C444.769 69.8954 444.991 69.8577 445.198 69.7822C445.406 69.7067 445.571 69.5934 445.699 69.4518C445.826 69.3056 445.892 69.131 445.892 68.9233C445.892 68.6874 445.812 68.5034 445.656 68.3665C445.5 68.2297 445.264 68.1212 444.948 68.0362L443.717 67.7295C443.419 67.6587 443.16 67.5596 442.933 67.4275C442.707 67.2954 442.532 67.1208 442.405 66.9037C442.282 66.6867 442.216 66.4177 442.216 66.0968C442.216 65.7382 442.315 65.4315 442.513 65.1625C442.712 64.8936 442.976 64.6954 443.316 64.5491C443.655 64.4028 444.038 64.332 444.462 64.332C444.953 64.332 445.363 64.417 445.699 64.5821C446.034 64.7473 446.288 64.9691 446.463 65.2427C446.638 65.5164 446.727 65.8137 446.727 66.1346H445.802C445.779 65.875 445.699 65.6674 445.571 65.5117C445.444 65.356 445.279 65.2475 445.085 65.1767C444.887 65.1106 444.67 65.0729 444.434 65.0729C444.014 65.0729 443.698 65.1672 443.49 65.3513C443.278 65.5353 443.174 65.7571 443.174 66.0119C443.174 66.2478 443.25 66.4319 443.405 66.5687C443.561 66.7055 443.787 66.8094 444.089 66.8849L445.279 67.1774C445.651 67.2576 445.953 67.3803 446.175 67.5455C446.402 67.7106 446.562 67.8994 446.661 68.1212C446.76 68.343 446.812 68.5789 446.812 68.8431C446.812 69.1923 446.713 69.499 446.52 69.7727C446.326 70.0417 446.052 70.254 445.703 70.4097C445.354 70.5655 444.944 70.641 444.476 70.641L444.472 70.6363Z" fill="#E6ECF3"/>
<path d="M453.128 70.55V65.2368H451.184V64.4062H455.902V65.2368H454.048V70.55H453.132H453.128Z" fill="#E6ECF3"/>
<path d="M460.672 70.5531V64.4141H464.64V65.2021H461.587V67.066H464.31V67.8446H461.583V69.7509H464.711V70.5531H460.672Z" fill="#E6ECF3"/>
<path d="M469.828 70.5531V64.4141H471.112L472.839 69.298L474.594 64.4141H475.868V70.5531H474.939V65.6598L473.24 70.5531H472.447L470.758 65.6976V70.5531H469.833H469.828Z" fill="#E6ECF3"/>
<path d="M487.055 70.5531V64.4141H490.981V65.1974H487.984V67.0943H490.646V67.8682H487.984V70.5578H487.059L487.055 70.5531Z" fill="#E6ECF3"/>
<path d="M498.327 70.6379C497.77 70.6379 497.288 70.5152 496.883 70.2651C496.477 70.0197 496.165 69.6611 495.944 69.1892C495.722 68.7221 495.613 68.1558 495.613 67.4905C495.613 66.8251 495.727 66.2542 495.948 65.7823C496.17 65.3104 496.486 64.9518 496.892 64.7017C497.298 64.4516 497.779 64.3242 498.331 64.3242C498.883 64.3242 499.355 64.4516 499.761 64.7017C500.162 64.9518 500.474 65.3152 500.695 65.7823C500.917 66.2495 501.026 66.8251 501.026 67.4905C501.026 68.1558 500.917 68.7174 500.7 69.1845C500.483 69.6517 500.172 70.0103 499.766 70.2604C499.36 70.5105 498.883 70.6332 498.331 70.6332L498.327 70.6379ZM498.327 69.8593C498.685 69.8593 498.987 69.7791 499.242 69.6139C499.497 69.4488 499.69 69.194 499.822 68.8448C499.955 68.4956 500.021 68.052 500.021 67.5094C500.021 66.9667 499.955 66.4948 499.818 66.1409C499.681 65.787 499.487 65.5275 499.237 65.3576C498.982 65.1877 498.68 65.1028 498.327 65.1028C497.973 65.1028 497.666 65.1877 497.411 65.3576C497.156 65.5275 496.958 65.7918 496.821 66.1457C496.684 66.4996 496.614 66.9526 496.614 67.5094C496.614 68.0662 496.684 68.5003 496.821 68.8495C496.958 69.1939 497.156 69.4535 497.411 69.6139C497.666 69.7791 497.973 69.8593 498.327 69.8593Z" fill="#E6ECF3"/>
<path d="M506.043 70.5531V64.4141H508.483C508.94 64.4141 509.318 64.4848 509.615 64.6264C509.917 64.768 510.139 64.9662 510.285 65.221C510.431 65.4805 510.507 65.7825 510.507 66.1364C510.507 66.4667 510.45 66.7451 510.337 66.9669C510.224 67.1887 510.082 67.368 509.903 67.5048C509.724 67.6417 509.54 67.7549 509.346 67.8304L510.535 70.5578H509.582L508.497 67.9909H506.954V70.5578H506.043V70.5531ZM506.954 67.25H508.237C508.667 67.25 508.997 67.1557 509.233 66.9716C509.469 66.7876 509.587 66.5186 509.587 66.1742C509.587 65.8297 509.478 65.5749 509.266 65.4003C509.054 65.2257 508.761 65.136 508.398 65.136H506.958V67.2453L506.954 67.25Z" fill="#E6ECF3"/>
<path d="M521.465 70.5531V64.4141H522.39V69.7557H525.226V70.5531H521.465Z" fill="#E6ECF3"/>
<path d="M532.279 70.635C531.732 70.635 531.284 70.5453 530.949 70.3613C530.609 70.182 530.364 69.9177 530.208 69.5685C530.052 69.2194 529.977 68.7947 529.977 68.2945V64.4062H530.916V68.4077C530.916 68.8938 531.034 69.2571 531.274 69.493C531.515 69.729 531.85 69.8469 532.279 69.8469C532.567 69.8469 532.813 69.795 533.02 69.6912C533.228 69.5874 533.388 69.4317 533.497 69.2146C533.605 69.0023 533.662 68.7333 533.662 68.4077V64.4062H534.582V68.3653C534.582 68.8419 534.502 69.2524 534.346 69.5921C534.186 69.9319 533.94 70.1867 533.601 70.366C533.261 70.5453 532.822 70.635 532.279 70.635Z" fill="#E6ECF3"/>
<path d="M539.328 70.5531L541.4 67.4246L539.399 64.4141H540.522L541.971 66.6602L543.405 64.4141H544.391L542.452 67.3255L544.604 70.5578H543.476L541.89 68.1135L540.328 70.5578H539.328V70.5531Z" fill="#E6ECF3"/>
<path d="M551.705 70.635C551.158 70.635 550.709 70.5453 550.374 70.3613C550.035 70.182 549.789 69.9177 549.634 69.5685C549.478 69.2194 549.402 68.7947 549.402 68.2945V64.4062H550.341V68.4077C550.341 68.8938 550.459 69.2571 550.7 69.493C550.941 69.729 551.276 69.8469 551.705 69.8469C551.993 69.8469 552.238 69.795 552.446 69.6912C552.654 69.5874 552.814 69.4317 552.922 69.2146C553.031 69.0023 553.088 68.7333 553.088 68.4077V64.4062H554.008V68.3653C554.008 68.8419 553.928 69.2524 553.772 69.5921C553.611 69.9319 553.366 70.1867 553.026 70.366C552.687 70.5453 552.248 70.635 551.705 70.635Z" fill="#E6ECF3"/>
<path d="M559.216 70.5531V64.4141H561.655C562.113 64.4141 562.49 64.4848 562.788 64.6264C563.09 64.768 563.312 64.9662 563.458 65.221C563.604 65.4805 563.68 65.7825 563.68 66.1364C563.68 66.4667 563.623 66.7451 563.51 66.9669C563.396 67.1887 563.255 67.368 563.076 67.5048C562.896 67.6417 562.712 67.7549 562.519 67.8304L563.708 70.5578H562.75L561.665 67.9909H560.122V70.5578H559.211L559.216 70.5531ZM560.126 67.25H561.41C561.839 67.25 562.17 67.1557 562.406 66.9716C562.641 66.7876 562.759 66.5186 562.759 66.1742C562.759 65.8297 562.651 65.5749 562.439 65.4003C562.226 65.2257 561.934 65.136 561.57 65.136H560.131V67.2453L560.126 67.25Z" fill="#E6ECF3"/>
<path d="M570.097 70.55V67.9406L567.992 64.4062H568.988L570.559 67.1384L572.112 64.4062H573.107L571.012 67.9453V70.55H570.101H570.097Z" fill="#E6ECF3"/>
<path d="M583.008 70.5531L585.226 64.4141H586.226L588.439 70.5531H587.524L586.948 68.944H584.513L583.933 70.5531H583.013H583.008ZM584.735 68.1183H586.707L585.721 65.2965L584.735 68.1183Z" fill="#E6ECF3"/>
<path d="M595.338 70.635C594.791 70.635 594.342 70.5453 594.007 70.3613C593.667 70.182 593.422 69.9177 593.266 69.5685C593.111 69.2194 593.035 68.7947 593.035 68.2945V64.4062H593.974V68.4077C593.974 68.8938 594.092 69.2571 594.333 69.493C594.573 69.729 594.908 69.8469 595.338 69.8469C595.626 69.8469 595.871 69.795 596.079 69.6912C596.286 69.5874 596.447 69.4317 596.555 69.2146C596.664 69.0023 596.72 68.7333 596.72 68.4077V64.4062H597.641V68.3653C597.641 68.8419 597.56 69.2524 597.405 69.5921C597.244 69.9319 596.999 70.1867 596.659 70.366C596.319 70.5453 595.881 70.635 595.338 70.635Z" fill="#E6ECF3"/>
<path d="M604.198 70.55V65.2368H602.254V64.4062H606.973V65.2368H605.118V70.55H604.203H604.198Z" fill="#E6ECF3"/>
<path d="M614.073 70.6379C613.516 70.6379 613.035 70.5152 612.629 70.2651C612.223 70.0197 611.911 69.6611 611.69 69.1892C611.473 68.7221 611.359 68.1558 611.359 67.4905C611.359 66.8251 611.473 66.2542 611.694 65.7823C611.916 65.3104 612.232 64.9518 612.638 64.7017C613.044 64.4516 613.525 64.3242 614.077 64.3242C614.629 64.3242 615.101 64.4516 615.507 64.7017C615.908 64.9518 616.22 65.3152 616.441 65.7823C616.663 66.2495 616.772 66.8251 616.772 67.4905C616.772 68.1558 616.663 68.7174 616.446 69.1845C616.229 69.6517 615.918 70.0103 615.512 70.2604C615.111 70.5105 614.629 70.6332 614.077 70.6332L614.073 70.6379ZM614.073 69.8593C614.431 69.8593 614.733 69.7791 614.988 69.6139C615.243 69.4488 615.436 69.194 615.568 68.8448C615.701 68.4956 615.767 68.052 615.767 67.5094C615.767 66.9667 615.701 66.4948 615.564 66.1409C615.427 65.787 615.233 65.5275 614.983 65.3576C614.729 65.1877 614.427 65.1028 614.073 65.1028C613.719 65.1028 613.412 65.1877 613.157 65.3576C612.902 65.5275 612.704 65.7918 612.563 66.1457C612.421 66.4996 612.355 66.9526 612.355 67.5094C612.355 68.0662 612.426 68.5003 612.563 68.8495C612.699 69.1939 612.898 69.4535 613.157 69.6139C613.412 69.7791 613.719 69.8593 614.073 69.8593Z" fill="#E6ECF3"/>
<path d="M621.793 70.5531V64.4141H623.076L624.804 69.298L626.559 64.4141H627.833V70.5531H626.903V65.6598L625.205 70.5531H624.412L622.723 65.6976V70.5531H621.798H621.793Z" fill="#E6ECF3"/>
<path d="M635.573 70.6379C635.016 70.6379 634.535 70.5152 634.129 70.2651C633.723 70.0197 633.411 69.6611 633.19 69.1892C632.973 68.7221 632.859 68.1558 632.859 67.4905C632.859 66.8251 632.973 66.2542 633.194 65.7823C633.416 65.3104 633.732 64.9518 634.138 64.7017C634.544 64.4516 635.025 64.3242 635.577 64.3242C636.129 64.3242 636.601 64.4516 637.007 64.7017C637.408 64.9518 637.72 65.3152 637.941 65.7823C638.163 66.2495 638.272 66.8251 638.272 67.4905C638.272 68.1558 638.163 68.7174 637.946 69.1845C637.729 69.6517 637.418 70.0103 637.012 70.2604C636.611 70.5105 636.129 70.6332 635.577 70.6332L635.573 70.6379ZM635.573 69.8593C635.931 69.8593 636.233 69.7791 636.488 69.6139C636.743 69.4488 636.936 69.194 637.068 68.8448C637.201 68.4956 637.267 68.052 637.267 67.5094C637.267 66.9667 637.201 66.4948 637.064 66.1409C636.927 65.787 636.733 65.5275 636.483 65.3576C636.229 65.1877 635.927 65.1028 635.573 65.1028C635.219 65.1028 634.912 65.1877 634.657 65.3576C634.402 65.5275 634.204 65.7918 634.063 66.1457C633.921 66.4996 633.855 66.9526 633.855 67.5094C633.855 68.0662 633.926 68.5003 634.063 68.8495C634.199 69.1939 634.398 69.4535 634.657 69.6139C634.912 69.7791 635.219 69.8593 635.573 69.8593Z" fill="#E6ECF3"/>
<path d="M644.718 70.55V65.2368H642.773V64.4062H647.492V65.2368H645.638V70.55H644.722H644.718Z" fill="#E6ECF3"/>
<path d="M652.258 70.5531V64.4141H653.169V70.5531H652.258Z" fill="#E6ECF3"/>
<path d="M660.104 70.5531L657.934 64.4141H658.821L660.637 69.515L662.449 64.4141H663.341L661.171 70.5531H660.099H660.104Z" fill="#E6ECF3"/>
<path d="M668.117 70.5531V64.4141H672.086V65.2021H669.033V67.066H671.755V67.8446H669.028V69.7509H672.156V70.5531H668.117Z" fill="#E6ECF3"/>
<path d="M683.051 70.5531V64.4141H685.094C685.854 64.4141 686.429 64.5509 686.816 64.8246C687.203 65.0983 687.397 65.4947 687.397 66.0137C687.397 66.3346 687.317 66.6083 687.147 66.8395C686.982 67.0707 686.694 67.2642 686.278 67.4199C686.524 67.4718 686.727 67.552 686.892 67.6511C687.057 67.7502 687.184 67.8682 687.279 67.9956C687.373 68.123 687.439 68.2693 687.482 68.4203C687.524 68.5713 687.543 68.7317 687.543 68.8969C687.543 69.4537 687.345 69.8689 686.953 70.1426C686.562 70.4163 685.962 70.5531 685.165 70.5531H683.051ZM683.961 67.0707H685.259C685.41 67.0707 685.561 67.0566 685.707 67.0235C685.854 66.9905 685.991 66.9386 686.109 66.8678C686.231 66.797 686.326 66.6979 686.401 66.5753C686.477 66.4526 686.51 66.3063 686.51 66.127C686.51 65.7919 686.382 65.5466 686.132 65.3861C685.882 65.2257 685.552 65.1455 685.151 65.1455H683.957V67.0707H683.961ZM683.961 69.8123H685.169C685.646 69.8123 686.005 69.7321 686.25 69.5669C686.495 69.4065 686.618 69.1611 686.618 68.8355C686.618 68.5996 686.557 68.4061 686.434 68.2598C686.311 68.1135 686.146 68.0003 685.943 67.9295C685.736 67.8587 685.505 67.821 685.25 67.821H683.952V69.8123H683.961Z" fill="#E6ECF3"/>
<path d="M694.881 70.635C694.333 70.635 693.885 70.5453 693.55 70.3613C693.21 70.182 692.965 69.9177 692.809 69.5685C692.654 69.2194 692.578 68.7947 692.578 68.2945V64.4062H693.517V68.4077C693.517 68.8938 693.635 69.2571 693.876 69.493C694.116 69.729 694.451 69.8469 694.881 69.8469C695.169 69.8469 695.414 69.795 695.622 69.6912C695.829 69.5874 695.99 69.4317 696.098 69.2146C696.207 69.0023 696.263 68.7333 696.263 68.4077V64.4062H697.184V68.3653C697.184 68.8419 697.103 69.2524 696.948 69.5921C696.787 69.9319 696.542 70.1867 696.202 70.366C695.862 70.5453 695.423 70.635 694.881 70.635Z" fill="#E6ECF3"/>
<path d="M704.53 70.6363C704.228 70.6363 703.94 70.5985 703.667 70.5277C703.393 70.4522 703.138 70.3437 702.916 70.1974C702.69 70.0511 702.506 69.8718 702.36 69.65C702.213 69.433 702.124 69.1782 702.086 68.8856H703.034C703.082 69.1074 703.176 69.2914 703.322 69.4424C703.464 69.5934 703.643 69.7067 703.86 69.7822C704.077 69.8577 704.318 69.8954 704.582 69.8954C704.828 69.8954 705.049 69.8577 705.257 69.7822C705.465 69.7067 705.63 69.5934 705.757 69.4518C705.885 69.3056 705.946 69.131 705.946 68.9233C705.946 68.6874 705.866 68.5034 705.71 68.3665C705.554 68.2297 705.318 68.1212 705.002 68.0362L703.771 67.7295C703.473 67.6587 703.209 67.5596 702.983 67.4275C702.756 67.2954 702.581 67.1208 702.454 66.9037C702.327 66.6867 702.265 66.4177 702.265 66.0968C702.265 65.7382 702.364 65.4315 702.563 65.1625C702.761 64.8936 703.025 64.6954 703.365 64.5491C703.705 64.4028 704.087 64.332 704.511 64.332C705.002 64.332 705.413 64.417 705.748 64.5821C706.083 64.7473 706.338 64.9691 706.512 65.2427C706.687 65.5164 706.776 65.8137 706.776 66.1346H705.851C705.828 65.875 705.748 65.6674 705.62 65.5117C705.493 65.356 705.328 65.2475 705.13 65.1767C704.931 65.1106 704.714 65.0729 704.478 65.0729C704.058 65.0729 703.742 65.1672 703.535 65.3513C703.322 65.5353 703.218 65.7571 703.218 66.0119C703.218 66.2478 703.294 66.4319 703.45 66.5687C703.605 66.7055 703.832 66.8094 704.134 66.8849L705.323 67.1774C705.696 67.2576 705.998 67.3803 706.22 67.5455C706.446 67.7106 706.607 67.8994 706.706 68.1212C706.805 68.3382 706.852 68.5789 706.852 68.8431C706.852 69.1923 706.753 69.499 706.559 69.7727C706.366 70.0417 706.092 70.254 705.743 70.4097C705.394 70.5655 704.983 70.641 704.516 70.641L704.53 70.6363Z" fill="#E6ECF3"/>
<path d="M711.91 70.5531V64.4141H712.821V70.5531H711.91Z" fill="#E6ECF3"/>
<path d="M718.18 70.5531V64.4141H719.058L722.182 68.9912V64.4141H723.097V70.5531H722.281L719.086 65.8769V70.5531H718.176H718.18Z" fill="#E6ECF3"/>
<path d="M728.457 70.5531V64.4141H732.426V65.2021H729.372V67.066H732.095V67.8446H729.368V69.7509H732.496V70.5531H728.457Z" fill="#E6ECF3"/>
<path d="M739.745 70.6363C739.443 70.6363 739.155 70.5985 738.882 70.5277C738.608 70.4522 738.353 70.3437 738.131 70.1974C737.905 70.0511 737.721 69.8718 737.575 69.65C737.428 69.433 737.339 69.1782 737.301 68.8856H738.249C738.296 69.1074 738.391 69.2914 738.537 69.4424C738.679 69.5934 738.858 69.7067 739.075 69.7822C739.292 69.8577 739.533 69.8954 739.797 69.8954C740.042 69.8954 740.264 69.8577 740.472 69.7822C740.679 69.7067 740.845 69.5934 740.972 69.4518C741.099 69.3056 741.161 69.131 741.161 68.9233C741.161 68.6874 741.081 68.5034 740.925 68.3665C740.769 68.2297 740.533 68.1212 740.217 68.0362L738.985 67.7295C738.688 67.6587 738.424 67.5596 738.197 67.4275C737.971 67.2954 737.796 67.1208 737.669 66.9037C737.541 66.6867 737.48 66.4177 737.48 66.0968C737.48 65.7382 737.579 65.4315 737.777 65.1625C737.976 64.8936 738.24 64.6954 738.58 64.5491C738.919 64.4028 739.302 64.332 739.726 64.332C740.217 64.332 740.627 64.417 740.963 64.5821C741.298 64.7473 741.552 64.9691 741.727 65.2427C741.902 65.5164 741.991 65.8137 741.991 66.1346H741.066C741.043 65.875 740.963 65.6674 740.835 65.5117C740.708 65.356 740.543 65.2475 740.344 65.1767C740.146 65.1106 739.929 65.0729 739.693 65.0729C739.273 65.0729 738.957 65.1672 738.749 65.3513C738.537 65.5353 738.433 65.7571 738.433 66.0119C738.433 66.2478 738.509 66.4319 738.665 66.5687C738.82 66.7055 739.047 66.8094 739.349 66.8849L740.538 67.1774C740.911 67.2576 741.213 67.3803 741.434 67.5455C741.661 67.7106 741.821 67.8994 741.92 68.1212C742.02 68.3382 742.067 68.5789 742.067 68.8431C742.067 69.1923 741.968 69.499 741.774 69.7727C741.581 70.0417 741.307 70.254 740.958 70.4097C740.609 70.5655 740.198 70.641 739.731 70.641L739.745 70.6363Z" fill="#E6ECF3"/>
<path d="M749.351 70.6363C749.049 70.6363 748.761 70.5985 748.487 70.5277C748.213 70.4522 747.959 70.3437 747.737 70.1974C747.51 70.0511 747.326 69.8718 747.18 69.65C747.034 69.433 746.944 69.1782 746.906 68.8856H747.855C747.902 69.1074 747.996 69.2914 748.143 69.4424C748.284 69.5934 748.463 69.7067 748.68 69.7822C748.898 69.8577 749.138 69.8954 749.402 69.8954C749.648 69.8954 749.87 69.8577 750.077 69.7822C750.285 69.7067 750.45 69.5934 750.577 69.4518C750.705 69.3056 750.766 69.131 750.766 68.9233C750.766 68.6874 750.686 68.5034 750.53 68.3665C750.375 68.2297 750.139 68.1212 749.822 68.0362L748.591 67.7295C748.294 67.6587 748.029 67.5596 747.803 67.4275C747.576 67.2954 747.402 67.1208 747.274 66.9037C747.147 66.6867 747.086 66.4177 747.086 66.0968C747.086 65.7382 747.185 65.4315 747.383 65.1625C747.581 64.8936 747.845 64.6954 748.185 64.5491C748.525 64.4028 748.907 64.332 749.332 64.332C749.822 64.332 750.233 64.417 750.568 64.5821C750.903 64.7473 751.158 64.9691 751.332 65.2427C751.507 65.5164 751.597 65.8137 751.597 66.1346H750.672C750.648 65.875 750.568 65.6674 750.441 65.5117C750.313 65.356 750.148 65.2475 749.95 65.1767C749.752 65.1106 749.535 65.0729 749.299 65.0729C748.879 65.0729 748.563 65.1672 748.355 65.3513C748.143 65.5353 748.039 65.7571 748.039 66.0119C748.039 66.2478 748.114 66.4319 748.27 66.5687C748.426 66.7055 748.652 66.8094 748.954 66.8849L750.143 67.1774C750.516 67.2576 750.818 67.3803 751.04 67.5455C751.266 67.7106 751.427 67.8994 751.526 68.1212C751.625 68.3382 751.672 68.5789 751.672 68.8431C751.672 69.1923 751.573 69.499 751.38 69.7727C751.186 70.0417 750.912 70.254 750.563 70.4097C750.214 70.5655 749.804 70.641 749.336 70.641L749.351 70.6363Z" fill="#E6ECF3"/>
<path d="M778.537 67.2461H756.406V67.718H778.537V67.2461Z" fill="#EBB811"/>
<path d="M297.275 67.2461H275.145V67.718H297.275V67.2461Z" fill="#EBB811"/>
<defs>
<linearGradient id="paint0_linear_18_705" x1="74.8618" y1="61.5391" x2="90.6952" y2="90.6017" gradientUnits="userSpaceOnUse">
<stop stop-color="#EDD41E"/>
<stop offset="1" stop-color="#FEEE74"/>
</linearGradient>
<linearGradient id="paint1_linear_18_705" x1="150.969" y1="2.09247e-06" x2="203.143" y2="85.7413" gradientUnits="userSpaceOnUse">
<stop stop-color="#EDD41E"/>
<stop offset="1" stop-color="#FEEE74"/>
</linearGradient>
<linearGradient id="paint2_linear_18_705" x1="438.01" y1="19.9609" x2="455.78" y2="45.5801" gradientUnits="userSpaceOnUse">
<stop stop-color="#EDD41E"/>
<stop offset="1" stop-color="#FEEE74"/>
</linearGradient>
<linearGradient id="paint3_linear_18_705" x1="715.356" y1="19.9609" x2="733.241" y2="45.2677" gradientUnits="userSpaceOnUse">
<stop stop-color="#EDD41E"/>
<stop offset="1" stop-color="#FEEE74"/>
</linearGradient>
<linearGradient id="paint4_linear_18_705" x1="764.379" y1="19.9688" x2="782.89" y2="43.0846" gradientUnits="userSpaceOnUse">
<stop stop-color="#EDD41E"/>
<stop offset="1" stop-color="#FEEE74"/>
</linearGradient>
</defs>
</svg>
